<?xml version="1.0" encoding="iso-8859-1"?>
<!-- Generator: Adobe Illustrator 19.0.0, SVG Export Plug-In . SVG Version: 6.00 Build 0)  -->
<svg version="1.1" id="Layer_1" xmlns="http://www.w3.org/2000/svg" xmlns:xlink="http://www.w3.org/1999/xlink" x="0px" y="0px"
	 viewBox="0 0 512 512" style="enable-background:new 0 0 512 512;" xml:space="preserve">
<polygon style="fill:#CCD1D9;" points="333,292.5 256.5,261 185,288.5 79,250.5 83.5,385.5 256.5,454.5 430,389.5 430,245.469 "/>
<polygon style="fill:#E6E9ED;" points="424,171.328 491.328,132.672 330,49.328 256,86 180.672,49.328 29.328,137.328 
	94.672,181.328 22.672,210.672 186.672,294.672 256,256 334,294.672 494,212.672 "/>
<polygon style="fill:#656D78;" points="253.672,90.672 105.328,174 263.672,257.344 407.672,169.344 "/>
<path d="M438.859,174.938L512,137.141L329.156,42.656L256,80.469l-73.141-37.812L0,137.141l73.156,37.797L0,212.719l73.156,37.797
	v145.672L256,469.344l182.859-73.156V250.516L512,212.719L438.859,174.938z M465.531,212.719l-136.375,70.469l-49.906-25.781
	l136.375-70.469L465.531,212.719z M256,104.469l136.391,70.469L256,245.406l-136.375-70.469L256,104.469z M329.156,66.688
	l136.375,70.453l-49.906,25.797L279.25,92.469L329.156,66.688z M46.484,137.141l136.375-70.453l49.906,25.781L96.391,162.938
	L46.484,137.141z M96.391,186.938l136.375,70.469l-49.906,25.781L46.484,212.719L96.391,186.938z M94.484,261.531l88.375,45.656
	l62.484-32.266v167.172L94.484,381.75V261.531z M417.531,381.75l-150.859,60.344V274.922l62.484,32.266l88.375-45.656V381.75z"/>
<g>
</g>
<g>
</g>
<g>
</g>
<g>
</g>
<g>
</g>
<g>
</g>
<g>
</g>
<g>
</g>
<g>
</g>
<g>
</g>
<g>
</g>
<g>
</g>
<g>
</g>
<g>
</g>
<g>
</g>
</svg>
