<?xml version="1.0" encoding="iso-8859-1"?>
<!-- Generator: Adobe Illustrator 19.0.0, SVG Export Plug-In . SVG Version: 6.00 Build 0)  -->
<svg version="1.1" id="Layer_1" xmlns="http://www.w3.org/2000/svg" xmlns:xlink="http://www.w3.org/1999/xlink" x="0px" y="0px"
	 viewBox="0 0 460 460" style="enable-background:new 0 0 460 460;" xml:space="preserve">
<g id="XMLID_312_">
	<polygon id="XMLID_333_" style="fill:#354A67;" points="0,0 0,460 230,460 240,230 230,0 	"/>
	<rect id="XMLID_334_" x="230" style="fill:#233145;" width="230" height="460"/>
	<polygon id="XMLID_337_" style="fill:#6B81A1;" points="30,230 30,430 230,430 240,330 230,230 	"/>
	<polygon id="XMLID_338_" style="fill:#8799B3;" points="30,30 30,230 230,230 240,130 230,30 	"/>
	<rect id="XMLID_340_" x="90" y="260" style="fill:#FFFFFF;" width="80" height="40"/>
	<rect id="XMLID_341_" x="90" y="300" style="fill:#354A67;" width="80" height="30"/>
	<rect id="XMLID_348_" x="90" y="60" style="fill:#FFFFFF;" width="80" height="40"/>
	<rect id="XMLID_350_" x="90" y="100" style="fill:#354A67;" width="80" height="30"/>
	<rect id="XMLID_351_" x="230" y="230" style="fill:#354A67;" width="200" height="200"/>
	<rect id="XMLID_352_" x="230" y="30" style="fill:#466289;" width="200" height="200"/>
	<rect id="XMLID_439_" x="290" y="260" style="fill:#FFD488;" width="80" height="40"/>
	<rect id="XMLID_440_" x="290" y="300" style="fill:#121923;" width="80" height="30"/>
	<rect id="XMLID_441_" x="290" y="60" style="fill:#FFD488;" width="80" height="40"/>
	<rect id="XMLID_443_" x="290" y="100" style="fill:#121923;" width="80" height="30"/>
</g>
<g>
</g>
<g>
</g>
<g>
</g>
<g>
</g>
<g>
</g>
<g>
</g>
<g>
</g>
<g>
</g>
<g>
</g>
<g>
</g>
<g>
</g>
<g>
</g>
<g>
</g>
<g>
</g>
<g>
</g>
</svg>
